<?xml version="1.0" standalone="no"?>
<!DOCTYPE svg PUBLIC "-//W3C//DTD SVG 1.1//EN" "http://www.w3.org/Graphics/SVG/1.1/DTD/svg11.dtd" >
<svg xmlns="http://www.w3.org/2000/svg">
<metadata>
This is a custom SVG webfont generated by Font Squirrel.
Copyright   :  MissTiina Fonts 2008 All Rights Reserved
Designer    : Tina Raparanta aka MissTiina 
</metadata>
<defs>
<font id="MTFChubbRegular" horiz-adv-x="1139" >
<font-face units-per-em="2048" ascent="1638" descent="-410" />
<missing-glyph horiz-adv-x="466" />
<glyph unicode=" "  horiz-adv-x="466" />
<glyph unicode="&#x09;" horiz-adv-x="466" />
<glyph unicode="&#xa0;" horiz-adv-x="466" />
<glyph unicode="!" horiz-adv-x="400" d="M40 948v24q17 76 140 76h20q140 0 140 -116l12 -336q0 -230 -60 -272l-28 -20h-4q-136 0 -180 60q-36 65 -36 160l8 156q-12 127 -12 268zM52 108v28q0 92 76 92l112 12h40q70 0 80 -100v-36q0 -100 -140 -100l-84 -4q-84 0 -84 108z" />
<glyph unicode="&#x22;" horiz-adv-x="756" d="M40 635v12q44 207 92 340q20 12 48 16l80 -4h12l4 -4l4 4q140 -3 140 -16q0 16 32 24l212 -4q52 0 52 -32q0 -45 -132 -344q-28 -32 -68 -32q-180 6 -180 28l-8 24q4 38 24 100v4h-4q-44 -164 -124 -164q-180 7 -180 32zM352 755h4v8h-4v-8z" />
<glyph unicode="#" horiz-adv-x="684" d="M40 316v112q0 48 52 48h32l12 132h-44q-20 9 -20 40v104q4 48 40 48h36q10 0 24 172q18 48 44 48q136 0 136 -36v-24l-12 -160h44q10 208 56 208h8q132 0 132 -40v-20q0 -69 -12 -152q72 0 72 -48l4 -16l-4 -96q0 -36 -44 -36h-44l-12 -132h28q44 0 44 -60l-4 -104 q0 -28 -40 -28h-44q-18 -272 -40 -272l-20 -4q-140 0 -140 36l-4 40l16 204h-40q-19 -264 -40 -264l-20 -4q-140 0 -140 36l-4 40l16 192h-12q-56 0 -56 36zM312 476h44v4l8 124h-40z" />
<glyph unicode="$" horiz-adv-x="844" d="M40 380v12q0 64 124 64q12 7 116 12q24 -4 24 -12v-36l-4 -4q17 -92 68 -92l16 152q-204 54 -272 136q-44 54 -44 136q0 348 356 348h36q7 88 28 88h20q36 0 36 -28v-44l-4 -28q153 -46 216 -152q36 -71 36 -156q0 -14 -184 -16q-57 0 -72 84l-12 16l-4 4h-4 q-16 -107 -16 -184q217 0 296 -248l8 -56v-32q0 -107 -128 -200q-92 -60 -240 -60h-4q-6 0 -20 -76l-24 -8q-48 0 -48 40v40l4 4v4q-94 0 -208 96q-96 106 -96 196zM384 776q0 -46 28 -72l16 156q-44 -22 -44 -84zM456 328q36 19 36 48v8q0 32 -24 48h-4v-4z" />
<glyph unicode="%" horiz-adv-x="1096" d="M40 712v28q0 188 176 232l52 4q155 0 212 -180l4 -44v-52q0 -156 -176 -220l-56 -8q-147 0 -204 188q-8 18 -8 52zM184 716q10 -120 80 -120h8q68 13 68 132q-11 124 -72 124h-8q-76 -28 -76 -136zM252 48v24q0 31 112 256q347 722 372 736l24 8h8q84 -27 84 -56 q-8 -50 -240 -512q-226 -479 -252 -500l-4 -4h-8q-44 0 -96 48zM608 300q0 192 176 240l56 4q145 0 208 -168l8 -80v-8q0 -176 -172 -240l-60 -8h-4q-142 0 -200 184q-8 19 -12 76zM756 284q0 -103 72 -120h16q56 0 64 112v36q-10 108 -72 108h-4q-61 0 -76 -132v-4z" />
<glyph unicode="&#x26;" horiz-adv-x="1036" d="M40 316v20q0 159 148 208v4q-144 79 -144 240v4q0 194 200 248l52 4h32q199 0 292 -180q20 -45 20 -104v-12q0 -144 -116 -208l-4 -4v-4q23 -79 140 -136l4 -4h4q39 0 52 200q21 60 52 60h12q156 0 156 -32v-24q-61 -236 -116 -320q172 -156 172 -200v-24 q-32 -52 -156 -52h-12q-129 0 -176 64l-28 20q-86 -76 -248 -76q-219 0 -292 148q-44 76 -44 160zM264 300q0 -92 116 -92q40 4 40 40q-14 75 -72 140q-69 0 -84 -88zM272 784q0 -80 56 -80q43 0 48 56q-14 80 -64 80q-35 0 -40 -52v-4z" />
<glyph unicode="'" horiz-adv-x="464" d="M40 638v12q51 232 92 336q18 16 36 16l204 -4q52 0 52 -32q0 -40 -120 -328q-29 -48 -76 -48q-184 4 -184 32z" />
<glyph unicode="(" horiz-adv-x="504" d="M40 604v44q0 308 132 512q24 16 64 16q212 0 212 -40v-16l-52 -212q-48 -219 -48 -324v-12q0 -232 108 -480l8 -32v-8q0 -52 -140 -52h-56q-97 0 -120 44q-108 282 -108 560z" />
<glyph unicode=")" horiz-adv-x="504" d="M40 52v8q19 70 80 228q36 177 36 288q0 155 -100 540v8q0 52 160 52h64q73 0 116 -144q68 -170 68 -396v-12q0 -310 -112 -584q-18 -40 -128 -40h-44q-140 0 -140 52z" />
<glyph unicode="*" horiz-adv-x="628" d="M40 695v76q10 20 32 20h104q-76 86 -76 104v12q47 56 68 56q9 0 88 -84h4v84q0 44 32 44h64q16 -7 16 -28v-92q69 80 84 80q35 -17 68 -56v-12q0 -22 -80 -108v-4h88q56 0 56 -32v-64l-16 -16h-128l84 -96v-8q0 -31 -68 -68h-4q-13 0 -88 80v-108l-16 -16h-76 q-20 9 -20 40v72q-69 -72 -80 -72q-25 0 -72 56v16l88 108h-124q-21 0 -28 16z" />
<glyph unicode="+" horiz-adv-x="604" d="M40 332v92q0 48 76 48h84v184q0 56 68 56h80q36 0 36 -60v-68l4 -108h40q128 0 128 -24q8 -34 8 -88v-28q0 -56 -44 -56h-128v-4l4 -248q0 -25 -60 -28h-84q-44 0 -44 104v64l-4 108h-144q-17 0 -20 56z" />
<glyph unicode="," horiz-adv-x="464" d="M40 -80q51 233 92 336q18 16 36 16l204 -4q52 0 52 -32q0 -40 -120 -328q-29 -48 -76 -48q-184 5 -184 32l-4 16v12z" />
<glyph unicode="-" horiz-adv-x="604" d="M40 326v92q0 33 48 40l372 4h52q52 0 52 -76v-72q0 -36 -24 -44l-476 -8q-24 0 -24 64z" />
<glyph unicode="." horiz-adv-x="368" d="M40 132v108q0 14 16 32l148 4h80q40 -5 40 -36v-136l4 -64q0 -35 -52 -40h-164q-68 0 -68 60z" />
<glyph unicode="/" horiz-adv-x="680" d="M40 48v12q0 47 140 324q285 593 340 676q15 12 28 12h8q84 -31 84 -48q0 -50 -140 -312q-290 -615 -348 -708l-20 -4q-92 31 -92 48z" />
<glyph unicode="0" horiz-adv-x="808" d="M40 516v44q0 386 252 472l92 8h28q217 0 324 -316q32 -120 32 -252q0 -386 -252 -464l-72 -8q-196 0 -340 200q-64 116 -64 316zM264 572q32 -280 128 -280q56 0 76 132l4 72v52q-14 204 -84 204q-76 0 -108 -80z" />
<glyph unicode="1" horiz-adv-x="608" d="M40 668v32q0 77 64 96q242 168 424 168h12q28 -15 28 -80v-16q-16 -210 -16 -588v-16q0 -256 -60 -256l-56 -8h-40q-100 0 -124 48l-12 56l4 200v40q0 124 -12 236h-4q-105 -52 -148 -52h-12q-48 0 -48 140z" />
<glyph unicode="2" horiz-adv-x="780" d="M40 696v28q0 108 112 216q76 68 196 68h28q242 0 332 -208q20 -72 20 -128v-12q0 -175 -204 -332q-36 -37 -36 -52q15 -16 108 -16h84q60 0 60 -164q0 -96 -160 -96h-4l-236 12l-160 -12q-132 0 -132 128v24q0 147 248 300q144 114 144 212q0 70 -48 88q-60 0 -124 -144 q-29 -16 -60 -16h-48q-120 15 -120 104z" />
<glyph unicode="3" horiz-adv-x="796" d="M40 248v16q0 72 156 72h36q104 0 104 -60q4 -72 40 -72q76 14 76 76l4 24q0 94 -144 116q-32 15 -32 36v12q0 102 60 120q91 0 120 68l4 28q0 54 -64 60q-53 0 -88 -104q-35 -20 -64 -24q-180 0 -180 68l-4 28v4q0 209 172 280q70 32 140 32h24q170 0 300 -160 q56 -80 56 -156q0 -112 -132 -196q104 -115 104 -240v-20q0 -168 -196 -236q-79 -20 -136 -20h-16q-193 0 -328 208q-12 21 -12 40z" />
<glyph unicode="4" horiz-adv-x="868" d="M40 308v32q0 196 136 396q81 145 192 268q61 24 120 24h28q146 0 180 -96l8 -76l-4 -168l8 -108l-4 -84v-12q5 -48 36 -48l56 4q32 -8 32 -48v-92q0 -108 -68 -108h-56q-24 0 -32 -24l4 -104q0 -64 -124 -64h-64q-71 0 -100 52l-8 32v60q0 36 -76 36l-120 -8h-40 q-69 0 -96 80zM348 500q0 -48 88 -48q80 0 80 96l-20 160h-4q-139 -134 -144 -208z" />
<glyph unicode="5" horiz-adv-x="772" d="M40 492l8 248v164q0 75 208 96l304 8q164 -16 164 -100q8 0 8 -80v-40q-16 -76 -64 -76h-64l-172 12q-92 0 -92 -88l4 -24h4q70 48 140 48h4q176 0 236 -256l4 -60q0 -261 -292 -336q-32 -8 -80 -8q-180 0 -272 156l-4 24v20q23 92 176 92h4q17 0 92 -68q15 -12 36 -12h8 q44 28 44 92q-21 112 -100 112h-12q-27 0 -148 -36l-16 -4q-128 28 -128 116z" />
<glyph unicode="6" horiz-adv-x="764" d="M40 528v40q0 334 252 440q69 24 136 24h20q189 0 248 -192l8 -52q0 -54 -136 -64h-20q-58 0 -96 96l-36 24q-69 0 -112 -244v-4h4q48 76 152 76q151 0 244 -176q20 -79 20 -148v-12q0 -241 -164 -312q-71 -24 -136 -24q-214 0 -312 184q-72 163 -72 344zM304 352 q16 -84 76 -84h8q64 0 84 144q0 59 -48 76q-67 0 -112 -88q-8 -16 -8 -44v-4z" />
<glyph unicode="7" horiz-adv-x="728" d="M40 824v28q0 118 48 132q54 20 132 20h24q275 0 416 -56q24 -11 24 -96l4 -80q0 -80 -128 -448q-40 -186 -84 -268q-37 -52 -96 -52h-24l-88 -4q-117 0 -144 52v12q0 77 232 472q14 0 28 76q0 68 -152 68l-36 -4q-156 0 -156 148z" />
<glyph unicode="8" horiz-adv-x="824" d="M40 328v20q0 137 148 180h20q-132 96 -132 248v8q0 165 200 224q90 20 140 20h28q241 0 316 -240l8 -72v-4q0 -128 -104 -200q120 -93 120 -200q0 -190 -280 -300l-80 -12h-52q-223 0 -324 256zM304 292q22 -92 84 -92q100 28 100 100v8q-8 60 -56 60v4l4 4v4l-28 4h-8 q-96 -18 -96 -92zM352 764q0 -59 76 -72q58 0 68 80q-12 72 -64 72q-80 -14 -80 -80z" />
<glyph unicode="9" horiz-adv-x="776" d="M40 652v32q0 215 196 300q25 13 140 28h32q200 0 304 -316q24 -99 24 -212q0 -356 -244 -468q-57 -16 -88 -16h-44q-169 0 -284 104l-12 44v8q0 54 72 108l12 4q17 0 156 -52q16 -8 44 -8h16q65 0 96 88l8 56v64l-4 20q-92 -72 -188 -72q-159 0 -220 164q-16 77 -16 124z M244 672q20 -92 92 -92q63 0 76 104q-15 96 -64 96h-12q-78 0 -92 -108z" />
<glyph unicode=":" horiz-adv-x="372" d="M40 584v108q0 14 16 32l148 4h80q40 -5 40 -36v-136l4 -64q0 -35 -52 -40h-164q-68 0 -68 60zM44 232q11 40 24 40h88l136 4q35 0 40 -48v-192q-5 -36 -36 -36h-200q-48 0 -48 68v100z" />
<glyph unicode=";" horiz-adv-x="464" d="M40 -96q0 52 92 344q23 16 36 16q252 -2 252 -20l4 -24q0 -36 -128 -336q-31 -32 -56 -32q-200 0 -200 32v20zM128 536v164q0 14 16 32l148 4h80q40 -6 40 -36v-152l4 -44q0 -44 -52 -44h-164q-72 0 -72 76z" />
<glyph unicode="&#x37e;" horiz-adv-x="464" d="M40 -96q0 52 92 344q23 16 36 16q252 -2 252 -20l4 -24q0 -36 -128 -336q-31 -32 -56 -32q-200 0 -200 32v20zM128 536v164q0 14 16 32l148 4h80q40 -6 40 -36v-152l4 -44q0 -44 -52 -44h-164q-72 0 -72 76z" />
<glyph unicode="&#x3c;" horiz-adv-x="812" d="M40 264v232q0 33 100 56q511 184 612 184h4q12 0 16 -88l-4 -12l4 -44v-16q0 -88 -20 -88q-248 -68 -340 -108q59 -35 344 -136l8 -12v-172q0 -60 -16 -60h-8q-86 0 -540 196q-138 46 -160 68z" />
<glyph unicode="=" horiz-adv-x="608" d="M40 329v104q0 35 52 40h364q104 0 104 -32l4 -40l-4 -24l4 -36q0 -64 -44 -64h-448q-32 0 -32 52zM44 133v24q4 64 32 64l308 4q176 0 176 -20l8 -36v-100q0 -40 -32 -40h-472q-20 0 -20 104z" />
<glyph unicode="&#x3e;" horiz-adv-x="808" d="M40 124v100q0 30 72 40q198 60 284 96v8l-352 128l-4 20v184q0 31 16 36h16q70 0 488 -168q190 -69 204 -84l4 -24v-220q-4 -22 -372 -148q-284 -92 -332 -92h-4q-20 0 -20 124z" />
<glyph unicode="?" horiz-adv-x="664" d="M40 840v28q0 82 36 116l120 4h64q278 0 352 -200q8 -14 12 -72q0 -113 -136 -264q-61 -132 -156 -132h-8q-130 0 -160 68l-4 24v16q0 55 108 228l4 28v12q0 47 -116 56h-8l-68 -4q-40 0 -40 92zM144 96v52q0 80 72 80l136 16q100 0 100 -128q0 -112 -136 -112l-88 -4 q-84 0 -84 96z" />
<glyph unicode="@" horiz-adv-x="744" d="M40 300v40q0 166 184 284q92 40 176 40h24q197 0 264 -188l16 -100q0 -149 -120 -212q-40 -16 -80 -16h-8q-52 0 -76 28q-40 -28 -80 -28q-164 23 -164 160v4q0 111 92 172q35 20 72 20h28q28 0 68 -28q0 16 8 16h28q70 -4 72 -36q-20 -76 -20 -140q0 -24 16 -24 q29 6 32 68q0 124 -60 156q-57 28 -124 28q-204 0 -232 -240q0 -141 184 -204l48 -4q68 0 156 40h4q88 -10 88 -36q0 -51 -176 -92l-60 -8q-260 0 -340 204q-20 51 -20 96zM288 316q0 -40 52 -40h44q12 0 28 112l-44 12h-16q-55 0 -64 -56v-28z" />
<glyph unicode="A" horiz-adv-x="1104" d="M40 28v16q0 36 156 492q121 386 188 464q36 8 96 8h84q188 0 188 -36q84 -162 164 -436q140 -408 140 -424l8 -72q0 -35 -56 -40l-276 8q-16 12 -40 128q0 40 -128 40h-44q-128 0 -128 -36q-19 -32 -48 -128l-32 -8l-84 4h-100q-88 0 -88 20zM472 448q0 -20 72 -20h12 q52 0 52 36q-36 162 -60 180h-4q-59 -90 -72 -196z" />
<glyph unicode="B" horiz-adv-x="896" d="M40 60l8 920q0 28 72 28h380q211 0 256 -84q68 -96 68 -204v-24q0 -122 -88 -172v-4q53 0 104 -120q16 -52 16 -100v-28q0 -168 -124 -244q-93 -28 -224 -28l-424 8q-41 0 -44 52zM344 740q0 -112 28 -112l28 -4q112 0 112 80q-14 68 -120 68h-8q-40 0 -40 -32zM356 276 q0 -36 48 -36h32q104 0 104 76v4q0 62 -104 76l-44 4q-28 0 -28 -40z" />
<glyph unicode="C" horiz-adv-x="944" d="M40 484v32q0 255 188 416q113 84 244 84h28q205 0 316 -108q72 -85 72 -188v-24q0 -88 -68 -88l-44 -4q-183 0 -200 40q-22 96 -44 96q-32 3 -32 8q-60 0 -104 -72q-32 -102 -32 -212q0 -171 80 -196l40 -4q75 0 96 68q12 88 80 88h4q240 0 240 -36v-24 q-12 -136 -140 -276q-110 -84 -284 -84h-16q-312 0 -396 296q-28 96 -28 188z" />
<glyph unicode="D" horiz-adv-x="952" d="M40 48l4 560l-4 228l4 136q0 28 124 28q0 7 140 8h44q385 0 504 -204q56 -102 56 -324v-36q0 -295 -216 -412q-98 -32 -256 -32l-372 8q-28 10 -28 40zM352 288h32q152 0 192 216l4 28q0 192 -196 192q-28 -3 -28 -12z" />
<glyph unicode="E" horiz-adv-x="768" d="M40 752v24q0 224 44 224l68 4l384 -8l124 4q68 0 68 -72v-28l-4 -148q-32 -24 -116 -24l-184 8q-48 0 -48 -28v-40q0 -32 72 -32l100 4h64q48 0 48 -28q8 -29 12 -132q0 -116 -44 -116h-120l-80 4q-52 0 -52 -28l-4 -24q0 -40 36 -40l28 -4l240 4q52 0 52 -112v-112 q0 -48 -108 -48l-60 -4h-264q-236 0 -236 40q-20 127 -20 712z" />
<glyph unicode="F" horiz-adv-x="740" d="M40 740v232q0 36 28 36h4l56 -4l72 4h32l172 -4l84 4l80 -4l112 4q20 0 20 -48v-40l-4 -168l-12 -12l-108 -4h-48l-136 4q-24 0 -24 -28v-20q0 -64 12 -76l80 4h136q92 0 92 -44l-4 -144v-40q0 -39 -56 -48l-260 8v-44l4 -256q0 -52 -116 -52l-128 4h-36q-48 0 -48 100 v16l4 320z" />
<glyph unicode="G" horiz-adv-x="1000" d="M40 452v32q0 261 152 412q154 112 344 112h32q272 0 360 -200q20 -74 20 -108q0 -64 -92 -64q-39 -8 -116 -8h-20q-89 0 -108 36q-40 76 -92 76h-16q-120 -28 -120 -100q-20 -46 -20 -132q0 -190 108 -252l52 -8h36q72 0 72 56v8l-12 12h-44l-36 -4q-48 0 -60 36l4 28 v148q0 36 48 36l408 -4q20 -21 20 -72q-7 -408 -48 -408q-89 -84 -380 -84h-44q-300 0 -412 256q-36 98 -36 196z" />
<glyph unicode="H" horiz-adv-x="956" d="M40 388v436q0 180 40 180h248q47 0 56 -24l-4 -164l4 -188l108 -8l100 8v20l-4 224q0 128 44 128l44 4h172q64 0 64 -64v-540l4 -324q0 -58 -76 -68h-156q-92 0 -92 64v328q-50 16 -124 16q-39 0 -80 -12v-340q0 -64 -88 -64h-160q-72 0 -96 48z" />
<glyph unicode="I" horiz-adv-x="424" d="M40 120v576q0 292 28 292q31 20 76 20h156q84 0 84 -64v-884q0 -52 -48 -52q0 -8 -100 -8h-92q-66 0 -92 36q-12 43 -12 84z" />
<glyph unicode="J" horiz-adv-x="772" d="M40 336v76q0 76 132 76h48q84 0 84 -104q16 -108 52 -108q53 0 68 84l-4 216q0 424 36 424l32 8h192q44 0 44 -96l8 -420q0 -355 -148 -444q-96 -48 -184 -48h-44q-195 0 -284 164q-32 76 -32 172z" />
<glyph unicode="K" horiz-adv-x="956" d="M40 240v48q0 704 16 704q17 20 56 20h116q108 0 108 -56l4 -72v-116l4 -120l4 -4h4l208 316q37 48 64 48l240 4q52 -5 52 -20q0 -30 -308 -468q306 -444 308 -508q-24 -12 -76 -12h-232q-46 41 -128 192l-128 228h-4v-12l12 -276q0 -132 -48 -132l-140 -4h-60 q-64 0 -64 64z" />
<glyph unicode="L" horiz-adv-x="724" d="M40 116q0 892 24 892l40 4h176q80 0 80 -56v-644q0 -48 20 -48l264 8q40 0 40 -156v-12q0 -100 -56 -100h-36l-204 4l-216 -8q-124 0 -124 48z" />
<glyph unicode="M" horiz-adv-x="1172" d="M40 244v240q0 508 20 508q22 16 80 16h252q55 0 80 -140q64 -177 112 -372h4q84 262 140 480q15 36 84 36h228q60 0 76 -16q16 -471 16 -808l-4 -164q-5 -24 -60 -24h-168q-52 0 -52 60l-8 352v16h-4q-115 -416 -140 -416q0 -9 -108 -12h-24q-116 0 -116 56 q-68 170 -128 368h-4v-4l8 -292q0 -124 -36 -124h-196q-44 0 -44 20q-8 66 -8 220z" />
<glyph unicode="N" horiz-adv-x="1012" d="M40 76l8 920q10 26 20 28h16l132 -4l140 4q66 0 84 -36q51 -95 188 -412q6 -1 44 -88h4v8l-8 384q0 140 28 140l20 4h148q100 0 100 -28l8 -148q-18 -840 -36 -840q-36 -8 -96 -8h-132q-108 0 -108 36q-128 249 -268 576h-4v-492q0 -87 -32 -104l-48 -4h-140 q-68 0 -68 64z" />
<glyph unicode="O" horiz-adv-x="980" d="M40 504v32q0 281 224 428q93 48 220 48h20q245 0 384 -248q52 -107 52 -252q0 -361 -328 -488q-69 -24 -128 -24h-32q-263 0 -392 360q-20 73 -20 144zM336 476q0 -192 140 -228h36q90 0 124 168q8 34 8 100q0 216 -140 248h-16q-104 0 -148 -204l-4 -52v-32z" />
<glyph unicode="P" horiz-adv-x="836" d="M40 12l4 776v52q0 176 24 176l52 4h112q56 0 56 -36v-16q106 36 184 36h20q214 0 288 -248l16 -116q0 -258 -360 -304h-104v-208q0 -120 -24 -120l-100 -8h-136q-29 0 -32 12zM316 564l52 -4q81 0 116 48l12 48v32q0 92 -108 92l-72 -8v-208z" />
<glyph unicode="Q" horiz-adv-x="1012" d="M40 460v40q0 299 264 464q97 44 200 44h16q217 0 348 -284q36 -97 36 -168v-44q0 -111 -72 -200h4q37 20 60 20q29 -28 72 -168l4 -36v-8q-73 -75 -300 -116l-80 -4h-44q-352 0 -468 268q-40 103 -40 192zM324 496q0 -166 112 -216q16 -8 44 -8h20q103 0 132 216v48 q0 213 -136 252h-20q-102 0 -148 -196l-4 -56v-40z" />
<glyph unicode="R" horiz-adv-x="896" d="M40 44l4 524v280q0 156 16 156l76 4h156q330 0 384 -100q68 -90 68 -220v-24q0 -204 -152 -248h-8v-4l260 -368l12 -32q-11 -8 -56 -12l-128 4l-96 -4q-52 0 -212 280l-56 80h-4v-72q0 -280 -28 -280l-96 -8q-136 0 -136 28zM300 596l8 -8h56q89 0 112 68l4 24v44 q-12 76 -76 76l-24 4h-4l-76 -8v-200z" />
<glyph unicode="S" horiz-adv-x="844" d="M40 292v16q0 68 140 68l104 8l24 -8l-8 -44q0 -96 116 -96h4q72 12 72 56v8q0 77 -212 124q-212 72 -212 244q0 245 192 320q87 24 148 24h36q231 0 332 -208q16 -62 16 -112q0 -12 -184 -16q-44 0 -64 52q0 58 -68 64q-92 -13 -92 -92q0 -104 124 -104q205 0 284 -240 q12 -26 12 -64v-24q0 -155 -200 -244q-82 -24 -184 -24h-4q-285 0 -372 256z" />
<glyph unicode="T" horiz-adv-x="844" d="M40 920v28q0 60 24 60l28 4h568l128 -4q16 -14 16 -60v-56q0 -180 -32 -180l-32 -4h-152v-168l4 -476q0 -60 -32 -60l-32 -4h-204q-72 0 -72 16q-8 85 -8 284v408h-140q-56 0 -56 24q-8 49 -8 188z" />
<glyph unicode="U" horiz-adv-x="852" d="M40 904v96l8 8h16l232 4q60 -4 60 -16l4 -124l-4 -224q0 -340 80 -340q72 0 72 212l-4 252v224q5 16 36 16h104q156 0 156 -24q6 -52 12 -376q0 -455 -140 -544q-82 -68 -220 -68h-48q-248 0 -332 280q-32 200 -32 624z" />
<glyph unicode="V" horiz-adv-x="1104" d="M40 984v8q0 24 296 24q52 0 52 -36q108 -369 156 -464h4l180 492q18 8 52 8h220q64 -3 64 -20v-4q0 -130 -220 -652q-108 -309 -132 -332l-64 -4h-112l-132 -4q-56 2 -56 40q-154 358 -296 876q-12 32 -12 68z" />
<glyph unicode="W" horiz-adv-x="1352" d="M40 992q0 24 252 24q72 0 72 -20q76 -264 100 -408h4q28 157 44 420l24 8h88l20 -4l24 4h120q19 0 40 -184l48 -244h4l108 416q12 12 76 12h76q166 0 172 -28v-24q0 -58 -116 -440q-112 -459 -136 -516l-28 -4h-40l-212 -4q-37 0 -44 60l-68 300h-8q-79 -352 -92 -352 l-24 -4h-32l-224 -4q-35 0 -52 124q-196 770 -196 868z" />
<glyph unicode="X" horiz-adv-x="1052" d="M40 988v4q0 16 48 16h204q148 0 148 -36q56 -143 80 -228h4q96 251 112 260l40 4l316 -4l16 -12q-57 -165 -196 -468q200 -446 200 -500v-8q0 -14 -80 -16h-264q-60 0 -60 32q-24 49 -84 272h-4q-59 -241 -92 -292q-12 -8 -100 -12l-216 4q-64 3 -64 20v4q0 63 188 504v8 q-137 273 -196 448z" />
<glyph unicode="Y" horiz-adv-x="956" d="M40 1000q0 9 36 16l136 -4h156q44 0 76 -172q36 -98 36 -116h4q77 288 88 288l24 4h248q52 0 72 -8q0 -49 -252 -672l-4 -40l4 -212v-36q0 -41 -36 -48l-152 4l-160 -4q-40 0 -40 112v224q-236 599 -236 664z" />
<glyph unicode="Z" horiz-adv-x="872" d="M40 96v152q0 66 64 116q217 249 304 360v4h-84l-124 -4l-112 4h-32q-16 0 -16 112q0 172 20 172l24 4h712q32 0 32 -60v-28q0 -220 -32 -220q-12 -24 -340 -408h4l52 -4l288 8q32 0 32 -60v-20q0 -220 -24 -220l-268 -4h-348l-140 4q-12 17 -12 92z" />
<glyph unicode="[" horiz-adv-x="444" d="M40 572v268l4 200l-4 44q0 76 28 76l40 4h216l4 -4l4 4h40q32 0 32 -72v-40q0 -128 -32 -128h-32q-35 0 -40 -52v-540q0 -84 28 -84l44 4q28 0 28 -36v-124l4 -44q0 -48 -48 -48h-232q-72 0 -72 28q-12 64 -12 544z" />
<glyph unicode="\" horiz-adv-x="608" d="M40 1040v8q0 35 84 56h8q39 0 100 -188q336 -825 336 -856v-4q0 -29 -96 -56q-43 0 -156 320q-276 667 -276 720z" />
<glyph unicode="]" horiz-adv-x="444" d="M40 24v176q0 52 28 52l48 -4q24 0 24 68v560q0 48 -60 48q-40 0 -40 68v132q0 31 20 40h36l12 -4l20 4h208q60 0 60 -32l4 -44l4 -312q0 -768 -24 -768q-17 -8 -64 -8h-232q-31 0 -44 24z" />
<glyph unicode="^" horiz-adv-x="592" d="M40 507v8q0 62 128 372q41 112 52 120h168q20 -5 116 -308q48 -144 48 -184v-4q0 -12 -44 -12h-120q-9 0 -64 200q-6 0 -20 48q-9 -3 -96 -240q0 -8 -20 -8l-144 4z" />
<glyph unicode="_" horiz-adv-x="760" d="M40 40v64q0 36 100 36l496 8h36q48 0 48 -60l-4 -4l4 -20v-12q0 -40 -48 -40l-616 -12q-16 17 -16 40z" />
<glyph unicode="`" horiz-adv-x="400" d="M40 839v8q0 28 136 132q8 13 44 36h8q38 0 76 -144q56 -132 56 -172v-8q0 -45 -104 -112q-28 -32 -56 -32q-36 0 -160 292z" />
<glyph unicode="a" horiz-adv-x="740" d="M40 148v24q0 159 200 228q51 15 128 20l72 -8q-13 124 -84 124h-12q-32 0 -76 -48q-44 -24 -112 -24q-87 0 -104 40v16q0 81 152 144q76 24 144 24h48q304 0 304 -312v-320q0 -56 -92 -56l-56 4h-36q-48 0 -48 36l8 36h-4q-126 -68 -256 -68q-143 0 -172 112zM316 216 q7 -28 36 -28h4q69 0 100 80q0 24 -32 24v4q-66 0 -108 -80z" />
<glyph unicode="b" horiz-adv-x="844" d="M40 100v332l8 336l-4 52q0 128 44 128q0 10 48 12h24q168 0 168 -40l4 -32v-132l-8 -124v-4h4q30 72 192 72q207 0 272 -224l12 -100v-56q0 -227 -220 -308l-84 -12q-93 0 -192 76q0 -64 -44 -64l-68 -4h-40l-36 -4q-80 0 -80 96zM320 328q0 -92 52 -92h8q72 17 72 144 q0 92 -64 92q-57 0 -68 -128v-16z" />
<glyph unicode="c" horiz-adv-x="796" d="M40 348v28q0 266 280 312l68 4h36q245 0 320 -188l12 -60v-20q0 -48 -92 -48h-80q-108 0 -108 56l4 52q-15 12 -28 12h-4q-104 0 -104 -196v-4q0 -136 72 -136q60 0 60 100q0 23 176 28h16q50 0 68 -32v-32q0 -79 -76 -176q-72 -48 -224 -48h-56q-224 0 -300 164 q-40 102 -40 184z" />
<glyph unicode="d" horiz-adv-x="788" d="M40 288v32q0 161 84 300q63 64 168 64h60q61 0 108 -52l4 60v80l4 32l-8 140q0 44 144 44h48q92 0 92 -68l4 -304l-4 -560q0 -56 -120 -56h-24q-144 0 -144 64v4h-4q-62 -60 -176 -60q-150 0 -224 164q-12 61 -12 116zM324 312q0 -72 56 -72h8q24 0 36 100 q-7 116 -44 116q-56 -46 -56 -144z" />
<glyph unicode="e" horiz-adv-x="788" d="M40 300v36q0 289 196 368q75 24 140 24h36q236 0 324 -244l12 -84q0 -88 -48 -88h-256l-120 -4v-4l-4 -40q13 -96 72 -96q20 0 116 60q0 12 200 16q40 -11 40 -40q0 -54 -84 -124q-127 -80 -292 -80q-332 0 -332 300zM320 472l24 -8l108 4q-16 84 -52 84q-80 -25 -80 -80 z" />
<glyph unicode="f" horiz-adv-x="644" d="M40 576v16q0 116 56 116h36v4q0 209 188 292q68 24 140 24h32q112 0 112 -136v-32q0 -108 -48 -108q-132 0 -132 -44v-12l20 4h64q56 -6 56 -44v-40q0 -128 -44 -128h-44l-48 4l-8 -76v-72l8 -268q0 -72 -64 -72l-104 -4q-93 0 -116 52l-8 76v96l4 204l-4 76h-20l-24 -4 q-52 0 -52 76z" />
<glyph unicode="g" horiz-adv-x="784" d="M40 -4q0 57 72 68h128q73 0 92 -52q18 -40 56 -40q34 12 64 68l16 72q-8 52 -16 52q-99 -32 -176 -32q-156 0 -208 164l-12 96v40q0 197 164 276q47 16 104 16h4q75 0 120 -48q0 48 88 48h72q132 0 132 -60l4 -52l-16 -340v-156q0 -234 -188 -316q-120 -48 -220 -48 q-194 0 -268 164q-12 33 -12 60v20zM320 396q0 -56 40 -56q48 20 48 92q0 68 -44 76q-36 0 -44 -112z" />
<glyph unicode="h" horiz-adv-x="812" d="M40 492v140l8 324q0 52 132 52h104q112 0 112 -76v-16l-32 -228v-32h4q10 24 84 64q68 28 128 28q188 0 188 -312l-4 -116v-24l8 -248q0 -38 -108 -44h-48q-152 0 -152 48v20l12 164q-8 244 -52 244q0 7 -20 8q-58 0 -68 -176v-28l12 -188q0 -84 -68 -84l-132 -12 q-104 0 -104 80z" />
<glyph unicode="i" horiz-adv-x="420" d="M40 836v24q7 136 56 136l164 -4h32q64 -8 64 -52q-6 -172 -36 -172q-44 -20 -164 -20q-116 0 -116 88zM52 620v12q0 57 72 68q224 0 224 -32l4 -16v-28l28 -472v-16q0 -98 -36 -124q-31 -12 -56 -12h-116q-84 0 -84 96q0 87 -36 524z" />
<glyph unicode="j" horiz-adv-x="508" d="M40 -60q0 60 68 60q80 0 80 148q-12 152 -20 472q0 56 132 56h64l24 4q76 -7 76 -48l-8 -176l12 -408v-20q0 -308 -284 -308h-32q-108 0 -108 96zM152 830v40q0 110 40 124l92 8h52q112 0 112 -32l8 -44q-8 -41 -8 -128q0 -40 -76 -40l-120 -8q-100 0 -100 80z" />
<glyph unicode="k" horiz-adv-x="852" d="M40 452v204q0 256 24 256l24 12l40 -4l172 4q44 -12 44 -24l-4 -168v-192l-4 -100q56 64 132 212q31 16 52 16q204 0 204 -32q12 -4 12 -24v-12q-1 -53 -116 -232v-8q18 -16 128 -204q64 -81 64 -120q0 -32 -44 -32l-264 -4q-47 0 -116 144q-41 57 -56 100h-4 q8 -64 8 -176v-20q0 -48 -60 -48l-20 4l-44 -4h-24q-144 0 -144 32z" />
<glyph unicode="l" horiz-adv-x="404" d="M40 104v48l12 240v248q0 344 32 344q0 8 216 12q56 0 56 -92q8 -78 8 -352q-18 -496 -44 -496q-20 -56 -96 -56q-184 0 -184 104z" />
<glyph unicode="m" horiz-adv-x="1176" d="M40 112v120q0 440 28 440q26 36 64 36h116q52 0 52 -68v-24h4q97 68 180 68h44q106 0 188 -100q60 84 176 84q164 0 224 -176q9 0 20 -364q0 -124 -116 -124l-64 -4q-80 0 -80 112v16l8 172q-18 120 -76 120q-60 0 -76 -84v-4l4 -144q0 -145 -60 -168q-26 -12 -56 -12 h-24q-118 0 -140 36q-24 40 -24 104l12 200q0 72 -80 72q-60 0 -60 -248q0 -168 -68 -168l-16 -4h-20q-156 0 -156 72z" />
<glyph unicode="n" horiz-adv-x="812" d="M40 144v24l8 236v136q0 196 136 196h96q92 0 92 -92v-8h4q99 84 176 84h28q145 0 184 -224l8 -108l-12 -224l4 -72q0 -88 -80 -88l-124 -4q-68 0 -68 52l-8 80l4 108v96q0 59 -48 76l-16 4q-63 0 -72 -244v-24l4 -76q0 -57 -108 -72h-80q-120 0 -120 84q-7 0 -8 60z" />
<glyph unicode="o" horiz-adv-x="792" d="M40 340v28q0 211 208 336q68 28 128 28h24q223 0 324 -212q28 -65 28 -144v-20q0 -256 -260 -344l-96 -12h-28q-226 0 -312 228q-16 57 -16 112zM308 360q20 -116 76 -116q63 0 80 140q0 91 -64 104h-8q-72 0 -84 -124v-4z" />
<glyph unicode="p" horiz-adv-x="856" d="M40 601q0 120 144 120l112 4q60 0 60 -104q85 64 160 64h24q162 0 256 -208q20 -67 20 -120q0 -223 -208 -359q-57 -20 -108 -24q-78 0 -168 63v-8l16 -183v-4q-6 -80 -48 -80q-31 -20 -124 -20h-4q-82 0 -100 32q-24 57 -24 156l-4 471l4 36q-8 45 -8 164zM320 337 q0 -92 60 -108h4q80 0 80 112q-12 124 -60 124h-8q-62 0 -72 -104z" />
<glyph unicode="q" horiz-adv-x="796" d="M40 315v8q0 307 212 380l48 8h28q68 0 132 -68q0 48 116 48l112 4q68 -23 68 -136v-12l-36 -591l8 -104q-9 -108 -48 -108q0 -8 -48 -8h-128q-60 0 -60 136v68l4 139q-78 -76 -156 -76q-164 0 -244 240zM244 343q13 -108 68 -108q68 0 68 104t-64 120q-72 -22 -72 -104 v-12z" />
<glyph unicode="r" horiz-adv-x="604" d="M40 628v32q0 96 128 96l76 4q60 0 72 -96v-16h4q121 128 176 128h16q52 0 52 -188v-60q0 -72 -84 -72q-124 -49 -124 -152q-7 0 -8 -48v-180q0 -76 -152 -76q-124 0 -124 48q-17 0 -32 580z" />
<glyph unicode="s" horiz-adv-x="748" d="M40 232v8q0 25 212 48h12q10 0 40 -76q23 -20 40 -20h8q52 13 52 52v4q-37 60 -172 60q-188 34 -188 168v36q0 72 108 156q91 64 212 64h40q187 0 272 -156l4 -12q-36 -52 -168 -100h-24q-25 0 -72 60l-36 8q-40 -11 -40 -40q0 -56 208 -64q94 0 152 -116l8 -32v-28 q0 -134 -220 -232q-94 -20 -132 -20h-36q-186 0 -272 188q-8 16 -8 44z" />
<glyph unicode="t" horiz-adv-x="624" d="M40 680q11 40 72 40h48l-4 20v96q13 104 80 104l188 4q44 0 56 -72v-20l-8 -120q5 -18 16 -20l44 4h8q44 0 44 -136v-24q0 -72 -96 -72l-24 -4l-8 -24l4 -96v-20l-4 -84q9 -44 40 -44l48 8q36 -15 36 -56v-28q0 -110 -80 -128l-76 -8q-184 0 -236 100q-28 58 -28 152v4 l12 224h-4q-116 0 -116 36q-7 0 -12 164z" />
<glyph unicode="u" horiz-adv-x="816" d="M40 208v36l8 220l-4 184q0 80 56 80h152q84 0 84 -96l-8 -184q11 -184 60 -184q72 32 72 84l-4 196v56q0 116 136 116q135 0 172 -44l12 -48l-16 -260l8 -220q0 -128 -60 -128q-16 -12 -76 -12h-12q-127 0 -164 68v16q-123 -88 -240 -88h-8q-112 0 -156 120 q-12 48 -12 88z" />
<glyph unicode="v" horiz-adv-x="816" d="M40 608v20q0 84 160 84l40 4q93 0 116 -152q38 -144 72 -196q16 102 72 304q28 44 84 44h12q172 -15 172 -48l8 -52q0 -120 -148 -528q-50 -88 -148 -88h-8q-220 5 -220 36q-30 0 -76 112q-44 190 -128 400z" />
<glyph unicode="w" horiz-adv-x="1228" d="M40 656v16q0 52 104 52h68q125 0 148 -88q12 -37 32 -224q22 32 72 208q44 92 148 92h92q100 0 152 -272q6 -1 16 -48h4q33 244 56 304q25 40 60 40h64q124 0 124 -48l8 -52q0 -106 -96 -412q-26 -133 -56 -184q-32 -36 -148 -36l-76 -4q-95 0 -132 112q-20 43 -52 200 h-4q-20 -128 -76 -232q-42 -80 -172 -80h-48q-99 0 -124 72q-112 457 -160 544z" />
<glyph unicode="x" horiz-adv-x="872" d="M40 52v24q2 74 156 248q16 37 16 60q0 64 -116 216q-32 48 -32 84q35 48 196 48h8q123 0 148 -104l44 -80q56 172 176 172q196 -7 196 -52v-36q0 -42 -112 -176q-32 -42 -32 -68q0 -35 132 -288l4 -36v-24q0 -29 -96 -32q-192 0 -192 32l-96 124h-12q-13 -2 -64 -116 q-47 -48 -120 -48h-48q-156 10 -156 52z" />
<glyph unicode="y" horiz-adv-x="804" d="M40 665q0 49 144 60h36q137 0 160 -92l40 -200q9 0 40 200q25 88 124 88q176 -10 176 -68l4 -4v-4q0 -29 -104 -260q-96 -277 -168 -584q-15 -36 -72 -36l-136 -8q-72 7 -72 48v16q0 51 72 212l4 36q0 50 -100 216q-148 322 -148 380z" />
<glyph unicode="z" horiz-adv-x="752" d="M40 104v16q0 163 108 232q132 112 132 148q-17 13 -136 32q-64 27 -64 100v4q0 116 48 116l44 4h28l200 -8l196 4q71 0 96 -76l4 -36v-4q0 -160 -116 -252l-76 -92v-8h4l28 -4l92 4h16q68 0 68 -168q0 -88 -32 -88q0 -28 -432 -28q-208 0 -208 104z" />
<glyph unicode="{" horiz-adv-x="516" d="M40 548v52q0 125 44 140q32 22 32 60v168q0 158 116 196l32 4h192q20 0 20 -60v-92q0 -72 -32 -72l-48 -8l-16 -40l4 -68v-68q0 -128 -64 -184q64 -29 64 -108v-4l-12 -164q0 -50 80 -68q20 -12 20 -100v-80q0 -48 -64 -48h-84l-40 -4q-168 0 -168 200v4l4 152 q0 100 -40 100q-40 24 -40 92z" />
<glyph unicode="|" horiz-adv-x="248" d="M40 72q16 1064 36 1064q13 20 32 20h60q40 0 40 -56q-24 -1084 -32 -1084q-17 -16 -32 -16h-64q-40 0 -40 72z" />
<glyph unicode="}" horiz-adv-x="516" d="M40 1004v132q0 22 20 32h192q110 0 144 -152l4 -80v-140q0 -35 56 -80q20 -26 20 -140v-4q0 -112 -44 -112q-36 -21 -36 -92l4 -172q0 -196 -168 -196l-36 4h-92q-47 0 -60 28v136q0 65 40 76q60 0 60 64l-12 132v40q0 56 60 100q-64 54 -64 204l4 120q0 36 -52 36 q-40 0 -40 64z" />
<glyph unicode="~" horiz-adv-x="528" d="M40 476v16q5 94 108 124l36 4q31 0 152 -68l28 -4q16 0 56 80h16q29 0 52 -212v-8q0 -77 -136 -136l-40 -4q-27 0 -112 80l-28 12q-35 0 -56 -60q-11 -16 -28 -16q-22 0 -48 192z" />
<glyph unicode="&#xa1;" horiz-adv-x="682" />
<glyph unicode="&#xa2;" />
<glyph unicode="&#xa3;" />
<glyph unicode="&#xa4;" />
<glyph unicode="&#xa5;" />
<glyph unicode="&#xa6;" horiz-adv-x="532" />
<glyph unicode="&#xa7;" />
<glyph unicode="&#xa8;" horiz-adv-x="682" />
<glyph unicode="&#xa9;" horiz-adv-x="980" d="M40 460v40q0 244 212 380q90 52 228 52h16q289 0 416 -280q28 -88 28 -184q0 -347 -364 -456q-46 -12 -96 -12h-28q-269 0 -396 344q-16 65 -16 116zM164 448q0 -221 212 -296q63 -16 132 -20q244 0 300 260l4 64v28q0 222 -212 300l-100 16q-176 0 -292 -176 q-44 -89 -44 -176zM232 468v28q0 170 180 212l92 8q198 0 244 -168v-24q0 -36 -64 -36h-72q-68 0 -68 40l4 36l-12 8h-12q-72 0 -72 -116v-40q0 -84 52 -84q44 8 44 80q0 9 148 12q36 0 36 -32v-8q0 -102 -88 -148q-44 -20 -156 -20q-188 0 -232 136q-24 53 -24 116z" />
<glyph unicode="&#xaa;" horiz-adv-x="758" />
<glyph unicode="&#xab;" />
<glyph unicode="&#xac;" horiz-adv-x="1196" />
<glyph unicode="&#xad;" horiz-adv-x="604" d="M40 326v92q0 33 48 40l372 4h52q52 0 52 -76v-72q0 -36 -24 -44l-476 -8q-24 0 -24 64z" />
<glyph unicode="&#xae;" horiz-adv-x="1509" />
<glyph unicode="&#xaf;" horiz-adv-x="1131" />
<glyph unicode="&#xb0;" horiz-adv-x="819" />
<glyph unicode="&#xb1;" horiz-adv-x="1124" />
<glyph unicode="&#xb2;" horiz-adv-x="682" />
<glyph unicode="&#xb3;" horiz-adv-x="682" />
<glyph unicode="&#xb4;" horiz-adv-x="682" />
<glyph unicode="&#xb5;" horiz-adv-x="1180" />
<glyph unicode="&#xb6;" horiz-adv-x="1100" />
<glyph unicode="&#xb7;" horiz-adv-x="569" />
<glyph unicode="&#x2219;" horiz-adv-x="569" />
<glyph unicode="&#xb8;" horiz-adv-x="682" />
<glyph unicode="&#xb9;" horiz-adv-x="682" />
<glyph unicode="&#xba;" horiz-adv-x="748" />
<glyph unicode="&#xbb;" />
<glyph unicode="&#xbc;" horiz-adv-x="1708" />
<glyph unicode="&#xbd;" horiz-adv-x="1708" />
<glyph unicode="&#xbe;" horiz-adv-x="1708" />
<glyph unicode="&#xbf;" horiz-adv-x="1251" />
<glyph unicode="&#xc0;" horiz-adv-x="1366" />
<glyph unicode="&#xc1;" horiz-adv-x="1366" />
<glyph unicode="&#xc2;" horiz-adv-x="1366" />
<glyph unicode="&#xc3;" horiz-adv-x="1366" />
<glyph unicode="&#xc4;" horiz-adv-x="1366" />
<glyph unicode="&#xc5;" horiz-adv-x="1366" />
<glyph unicode="&#xc6;" horiz-adv-x="2048" />
<glyph unicode="&#xc7;" horiz-adv-x="1479" />
<glyph unicode="&#xc8;" horiz-adv-x="1366" />
<glyph unicode="&#xc9;" horiz-adv-x="1366" />
<glyph unicode="&#xca;" horiz-adv-x="1366" />
<glyph unicode="&#xcb;" horiz-adv-x="1366" />
<glyph unicode="&#xcc;" horiz-adv-x="569" />
<glyph unicode="&#xcd;" horiz-adv-x="569" />
<glyph unicode="&#xce;" horiz-adv-x="569" />
<glyph unicode="&#xcf;" horiz-adv-x="569" />
<glyph unicode="&#xd0;" horiz-adv-x="1479" />
<glyph unicode="&#xd1;" horiz-adv-x="1479" />
<glyph unicode="&#xd2;" horiz-adv-x="1593" />
<glyph unicode="&#xd3;" horiz-adv-x="1593" />
<glyph unicode="&#xd4;" horiz-adv-x="1593" />
<glyph unicode="&#xd5;" horiz-adv-x="1593" />
<glyph unicode="&#xd6;" horiz-adv-x="1593" />
<glyph unicode="&#xd7;" horiz-adv-x="1196" />
<glyph unicode="&#xd8;" horiz-adv-x="1593" />
<glyph unicode="&#xd9;" horiz-adv-x="1479" />
<glyph unicode="&#xda;" horiz-adv-x="1479" />
<glyph unicode="&#xdb;" horiz-adv-x="1479" />
<glyph unicode="&#xdc;" horiz-adv-x="1479" />
<glyph unicode="&#xdd;" horiz-adv-x="1366" />
<glyph unicode="&#xde;" horiz-adv-x="1366" />
<glyph unicode="&#xdf;" horiz-adv-x="1251" />
<glyph unicode="&#xe0;" />
<glyph unicode="&#xe1;" />
<glyph unicode="&#xe2;" />
<glyph unicode="&#xe3;" />
<glyph unicode="&#xe4;" />
<glyph unicode="&#xe5;" />
<glyph unicode="&#xe6;" horiz-adv-x="1821" />
<glyph unicode="&#xe7;" horiz-adv-x="1024" />
<glyph unicode="&#xe8;" />
<glyph unicode="&#xe9;" />
<glyph unicode="&#xea;" />
<glyph unicode="&#xeb;" />
<glyph unicode="&#xec;" horiz-adv-x="569" />
<glyph unicode="&#xed;" horiz-adv-x="569" />
<glyph unicode="&#xee;" horiz-adv-x="569" />
<glyph unicode="&#xef;" horiz-adv-x="569" />
<glyph unicode="&#xf0;" />
<glyph unicode="&#xf1;" />
<glyph unicode="&#xf2;" />
<glyph unicode="&#xf3;" />
<glyph unicode="&#xf4;" />
<glyph unicode="&#xf5;" />
<glyph unicode="&#xf6;" />
<glyph unicode="&#xf7;" horiz-adv-x="1124" />
<glyph unicode="&#xf8;" horiz-adv-x="1251" />
<glyph unicode="&#xf9;" />
<glyph unicode="&#xfa;" />
<glyph unicode="&#xfb;" />
<glyph unicode="&#xfc;" />
<glyph unicode="&#xfd;" horiz-adv-x="1024" />
<glyph unicode="&#xfe;" />
<glyph unicode="&#xff;" horiz-adv-x="1024" />
<glyph unicode="&#x152;" horiz-adv-x="2048" />
<glyph unicode="&#x153;" horiz-adv-x="1933" />
<glyph unicode="&#x178;" horiz-adv-x="1366" />
<glyph unicode="&#x2c6;" horiz-adv-x="682" />
<glyph unicode="&#x2dc;" horiz-adv-x="682" />
<glyph unicode="&#x2000;" horiz-adv-x="640" />
<glyph unicode="&#x2001;" horiz-adv-x="1280" />
<glyph unicode="&#x2002;" horiz-adv-x="640" />
<glyph unicode="&#x2003;" horiz-adv-x="1280" />
<glyph unicode="&#x2004;" horiz-adv-x="426" />
<glyph unicode="&#x2005;" horiz-adv-x="320" />
<glyph unicode="&#x2006;" horiz-adv-x="213" />
<glyph unicode="&#x2007;" horiz-adv-x="213" />
<glyph unicode="&#x2008;" horiz-adv-x="160" />
<glyph unicode="&#x2009;" horiz-adv-x="256" />
<glyph unicode="&#x200a;" horiz-adv-x="71" />
<glyph unicode="&#x2010;" horiz-adv-x="604" d="M40 326v92q0 33 48 40l372 4h52q52 0 52 -76v-72q0 -36 -24 -44l-476 -8q-24 0 -24 64z" />
<glyph unicode="&#x2011;" horiz-adv-x="604" d="M40 326v92q0 33 48 40l372 4h52q52 0 52 -76v-72q0 -36 -24 -44l-476 -8q-24 0 -24 64z" />
<glyph unicode="&#x2012;" horiz-adv-x="604" d="M40 326v92q0 33 48 40l372 4h52q52 0 52 -76v-72q0 -36 -24 -44l-476 -8q-24 0 -24 64z" />
<glyph unicode="&#x2013;" />
<glyph unicode="&#x2014;" horiz-adv-x="2048" />
<glyph unicode="&#x2018;" horiz-adv-x="464" d="M40 638v12q51 232 92 336q18 16 36 16l204 -4q52 0 52 -32q0 -40 -120 -328q-29 -48 -76 -48q-184 4 -184 32z" />
<glyph unicode="&#x2019;" horiz-adv-x="464" d="M40 638v12q51 232 92 336q18 16 36 16l204 -4q52 0 52 -32q0 -40 -120 -328q-29 -48 -76 -48q-184 4 -184 32z" />
<glyph unicode="&#x201a;" horiz-adv-x="455" />
<glyph unicode="&#x201c;" horiz-adv-x="756" d="M40 635v12q44 207 92 340q20 12 48 16l80 -4h12l4 -4l4 4q140 -3 140 -16q0 16 32 24l212 -4q52 0 52 -32q0 -45 -132 -344q-28 -32 -68 -32q-180 6 -180 28l-8 24q4 38 24 100v4h-4q-44 -164 -124 -164q-180 7 -180 32zM352 755h4v8h-4v-8z" />
<glyph unicode="&#x201d;" horiz-adv-x="756" d="M40 635v12q44 207 92 340q20 12 48 16l80 -4h12l4 -4l4 4q140 -3 140 -16q0 16 32 24l212 -4q52 0 52 -32q0 -45 -132 -344q-28 -32 -68 -32q-180 6 -180 28l-8 24q4 38 24 100v4h-4q-44 -164 -124 -164q-180 7 -180 32zM352 755h4v8h-4v-8z" />
<glyph unicode="&#x201e;" horiz-adv-x="682" />
<glyph unicode="&#x2022;" horiz-adv-x="717" />
<glyph unicode="&#x2026;" horiz-adv-x="2048" />
<glyph unicode="&#x202f;" horiz-adv-x="256" />
<glyph unicode="&#x2039;" horiz-adv-x="682" />
<glyph unicode="&#x203a;" horiz-adv-x="682" />
<glyph unicode="&#x205f;" horiz-adv-x="320" />
<glyph unicode="&#x20ac;" />
<glyph unicode="&#x2122;" horiz-adv-x="2048" />
<glyph unicode="&#xe000;" horiz-adv-x="730" d="M0 730h730v-730h-730v730z" />
<glyph unicode="&#xf001;" horiz-adv-x="1024" />
<glyph unicode="&#xfb01;" horiz-adv-x="1024" />
<glyph unicode="&#xf002;" horiz-adv-x="1024" />
<glyph unicode="&#xfb02;" horiz-adv-x="1024" />
<glyph unicode="&#xfb03;" horiz-adv-x="1708" d="M1328 836v24q7 136 56 136l164 -4h32q64 -8 64 -52q-6 -172 -36 -172q-44 -20 -164 -20q-116 0 -116 88zM1340 620v12q0 57 72 68q224 0 224 -32l4 -16v-28l28 -472v-16q0 -98 -36 -124q-31 -12 -56 -12h-116q-84 0 -84 96q0 87 -36 524zM684 576v16q0 116 56 116h36v4 q0 209 188 292q68 24 140 24h32q112 0 112 -136v-32q0 -108 -48 -108q-132 0 -132 -44v-12l20 4h64q56 -6 56 -44v-40q0 -128 -44 -128h-44l-48 4l-8 -76v-72l8 -268q0 -72 -64 -72l-104 -4q-93 0 -116 52l-8 76v96l4 204l-4 76h-20l-24 -4q-52 0 -52 76zM40 576v16 q0 116 56 116h36v4q0 209 188 292q68 24 140 24h32q112 0 112 -136v-32q0 -108 -48 -108q-132 0 -132 -44v-12l20 4h64q56 -6 56 -44v-40q0 -128 -44 -128h-44l-48 4l-8 -76v-72l8 -268q0 -72 -64 -72l-104 -4q-93 0 -116 52l-8 76v96l4 204l-4 76h-20l-24 -4q-52 0 -52 76z " />
<glyph unicode="&#xfb04;" horiz-adv-x="1692" d="M1328 104v48l12 240v248q0 344 32 344q0 8 216 12q56 0 56 -92q8 -78 8 -352q-18 -496 -44 -496q-20 -56 -96 -56q-184 0 -184 104zM684 576v16q0 116 56 116h36v4q0 209 188 292q68 24 140 24h32q112 0 112 -136v-32q0 -108 -48 -108q-132 0 -132 -44v-12l20 4h64 q56 -6 56 -44v-40q0 -128 -44 -128h-44l-48 4l-8 -76v-72l8 -268q0 -72 -64 -72l-104 -4q-93 0 -116 52l-8 76v96l4 204l-4 76h-20l-24 -4q-52 0 -52 76zM40 576v16q0 116 56 116h36v4q0 209 188 292q68 24 140 24h32q112 0 112 -136v-32q0 -108 -48 -108q-132 0 -132 -44 v-12l20 4h64q56 -6 56 -44v-40q0 -128 -44 -128h-44l-48 4l-8 -76v-72l8 -268q0 -72 -64 -72l-104 -4q-93 0 -116 52l-8 76v96l4 204l-4 76h-20l-24 -4q-52 0 -52 76z" />
</font>
</defs>
</svg>
